<?xml version="1.0" encoding="UTF-8"?><svg id="Layer_1" xmlns="http://www.w3.org/2000/svg" viewBox="0 0 245.25 109.5"><defs><style>.cls-1{fill:#aa1917;}.cls-2{fill:#0069b4;}.cls-3{fill:#e55f65;}</style></defs><path class="cls-1" d="M45.66,51.99h9.92c6.75,0,8.04,4.89,8.04,8.29,0,4.88-2.33,8.31-8.74,8.31h-2.82s0,10.64,0,10.64h-6.41s.02-27.24.02-27.24ZM52.06,63.86h1.75c2.56,0,3.17-1.6,3.17-3.43,0-2.1-.69-3.7-3.28-3.7h-1.64s0,7.13,0,7.13ZM77.18,52.01h15.75s0,5.2,0,5.2h-9.35s0,5.45,0,5.45h8.77s0,5.19,0,5.19h-8.77s0,6.21,0,6.21h9.77s0,5.19,0,5.19h-16.17s.02-27.25.02-27.25ZM106.56,52.03h6.41s0,10.76,0,10.76h.08s6-10.76,6-10.76h6.91s-7.14,11.75-7.14,11.75l8,15.49h-7.21s-4.91-10.27-4.91-10.27l-1.72,2.63v7.63s-6.41,0-6.41,0l.02-27.24Z"/><path class="cls-2" d="M158.69,58.84c-.87-3.84-3.91-5.73-7.73-5.67-6.48.11-9.14,5.49-9.05,11.18.1,6.22,2.94,11.36,9.46,11.25,4.73-.08,7.5-3.48,7.72-7.99l3.62-.06c-.61,6.84-4.7,10.99-11.6,11.11-8.43.14-12.69-6.04-12.83-13.98-.13-7.93,4.26-14.42,12.65-14.56,5.68-.1,10.46,2.88,11.36,8.66l-3.62.06ZM189.13,50.74c8.66,0,13.04,6.83,13.04,14.27,0,7.44-4.39,14.27-13.05,14.26-8.66,0-13.04-6.83-13.04-14.27,0-7.44,4.39-14.27,13.05-14.26M189.12,76.22c6.64,0,9.43-5.72,9.43-11.21,0-5.49-2.78-11.22-9.42-11.22-6.64,0-9.42,5.72-9.43,11.21,0,5.49,2.78,11.22,9.42,11.22M216.88,51.4h3.85s14.34,22.09,14.34,22.09h.08s0-22.09,0-22.09h3.43s0,27.24,0,27.24h-3.97s-14.22-21.86-14.22-21.86h-.08s0,21.86,0,21.86h-3.43s0-27.24,0-27.24Z"/><polyline class="cls-3" points="4.49 22.76 34.5 22.75 69.81 45.09 35.69 45.11 3.91 22.76"/><polygon class="cls-1" points="3.19 24.98 34.85 47.51 34.96 79.27 3.88 52.24 3.19 24.98"/><path class="cls-3" d="M47.96,91.55c0-2.63,2.16-5.1,4.84-5.1,1.48,0,2.47.75,2.97,1.75l-.52.28c-.52-.9-1.21-1.48-2.49-1.48-2.34,0-4.18,2.24-4.18,4.53,0,1.7,1.16,2.75,2.74,2.75,1.2,0,2-.47,2.74-1.21l.4.37c-.74.77-1.71,1.4-3.2,1.4-1.79,0-3.31-1.24-3.31-3.29"/><path class="cls-3" d="M60.06,92.21c0-1.86,1.62-3.56,3.5-3.56,1.56,0,2.63,1.1,2.63,2.61,0,1.92-1.68,3.56-3.51,3.56-1.56,0-2.62-1.1-2.62-2.61M65.58,91.29c0-1.33-.84-2.11-2.07-2.11-1.49,0-2.83,1.43-2.83,3.01,0,1.33.84,2.11,2.07,2.11,1.43,0,2.83-1.38,2.83-3.01"/><path class="cls-3" d="M72.81,88.79h.57s-.29,1.1-.29,1.1c.58-.69,1.24-1.24,2.23-1.24,1.17,0,1.93.74,1.93,1.87,0,.26-.06.55-.13.83l-.88,3.33h-.57s.9-3.38.9-3.38c.06-.22.09-.51.09-.73,0-.88-.58-1.42-1.51-1.42-1.01,0-2.12.91-2.46,2.2l-.89,3.33h-.57s1.57-5.9,1.57-5.9Z"/><path class="cls-3" d="M83.15,93.63c0-.18.04-.42.07-.57l1.01-3.75h-.86s.14-.52.14-.52h.86s.51-1.88.51-1.88h.57s-.51,1.89-.51,1.89h2.04s-.14.52-.14.52h-2.04s-1.01,3.76-1.01,3.76c-.04.15-.06.36-.06.5,0,.49.37.71.96.71.25,0,.52-.06.86-.18l-.15.56c-.31.11-.53.15-.83.15-.79,0-1.41-.36-1.41-1.17"/><path class="cls-3" d="M91.18,93.18c0-1.31,1.11-2.14,2.66-2.14.84,0,1.68.17,2.27.34l.05-.16c.05-.17.08-.43.08-.59,0-.89-.62-1.39-1.78-1.39-.65,0-1.15.11-1.71.31l-.1-.51c.58-.21,1.13-.33,1.86-.33,1.45,0,2.29.71,2.29,1.84,0,.22-.05.51-.12.77l-.9,3.38h-.56s.27-1.02.27-1.02c-.57.67-1.34,1.16-2.37,1.16-.98,0-1.93-.56-1.93-1.65M95.85,92.35l.14-.52c-.6-.15-1.36-.28-2.23-.28-1.18,0-1.98.65-1.98,1.56,0,.73.55,1.2,1.43,1.2,1.11,0,2.31-.77,2.64-1.97"/><path class="cls-3" d="M103.63,88.8h.57s-1.59,5.9-1.59,5.9h-.57s1.59-5.9,1.59-5.9ZM104.19,86.48h.71s-.21.78-.21.78h-.71s.21-.78.21-.78Z"/><path class="cls-3" d="M110.59,88.8h.57s-.29,1.1-.29,1.1c.58-.69,1.24-1.24,2.23-1.24,1.17,0,1.93.74,1.93,1.87,0,.26-.06.55-.13.83l-.88,3.33h-.57s.9-3.38.9-3.38c.06-.22.09-.51.09-.73,0-.88-.58-1.42-1.51-1.42-1.01,0-2.12.91-2.46,2.2l-.89,3.33h-.57s1.57-5.9,1.57-5.9Z"/><path class="cls-3" d="M121.17,91.95c-.02.14-.02.27-.02.39,0,1.19.8,1.97,1.95,1.97.89,0,1.45-.32,2.01-.79l.34.41c-.61.51-1.28.91-2.35.91-1.5,0-2.57-1.02-2.57-2.48,0-1.84,1.49-3.7,3.41-3.7,1.48,0,2.23,1.04,2.23,2.26,0,.39-.06.73-.16,1.03h-4.85ZM121.27,91.44h4.28c.02-.1.05-.27.05-.49,0-.95-.52-1.77-1.66-1.77-1.33,0-2.33,1.04-2.66,2.25"/><path class="cls-3" d="M132.72,88.8h.57s-.44,1.68-.44,1.68c.78-1.09,1.78-1.84,3.03-1.77l-.16.62h-.05c-1.36,0-2.81,1.08-3.31,2.95l-.65,2.42h-.57s1.57-5.9,1.57-5.9Z"/><path class="cls-3" d="M145.23,93.46c-.9.89-1.74,1.35-2.96,1.35-1.28,0-2.31-.74-2.31-2.02,0-1.3.96-2.28,2.83-2.75-.32-.52-.54-1.02-.54-1.54,0-1.17.98-2.03,2.13-2.03s1.9.67,1.9,1.68c0,.87-.6,1.68-2.61,2.22l1.64,2.33c.46-.52.91-1.18,1.34-1.93l.45.27c-.5.82-.97,1.5-1.47,2.06l1.04,1.48-.45.3-.98-1.4ZM144.91,93.07l-1.84-2.6c-1.75.42-2.51,1.3-2.51,2.26,0,.96.69,1.56,1.77,1.56.96,0,1.77-.42,2.58-1.21M145.68,88.17c0-.71-.52-1.19-1.33-1.19-.81,0-1.52.67-1.52,1.51,0,.49.16.89.53,1.46,1.79-.46,2.31-1.14,2.31-1.78"/><polygon class="cls-3" points="154.32 86.61 154.92 86.61 152.9 94.15 157.65 94.15 157.5 94.7 152.15 94.7 154.32 86.61"/><path class="cls-3" d="M162.84,92.23c0-1.86,1.62-3.56,3.5-3.56,1.56,0,2.63,1.1,2.63,2.61,0,1.92-1.68,3.56-3.51,3.56-1.56,0-2.62-1.1-2.62-2.61M168.36,91.31c0-1.33-.84-2.11-2.07-2.11-1.49,0-2.83,1.43-2.83,3.01,0,1.33.84,2.11,2.07,2.11,1.43,0,2.83-1.38,2.83-3.01"/><path class="cls-3" d="M173.67,95.48l.42-.42c.62.59,1.43.98,2.39.98.82,0,1.43-.28,1.82-.66.39-.39.62-.89.81-1.55l.21-.74c-.59.62-1.36,1.17-2.43,1.17-1.26,0-2.46-.86-2.46-2.29,0-1.97,1.68-3.31,3.34-3.31,1.36,0,1.97.8,2.3,1.57l.38-1.43h.57s-1.38,5.17-1.38,5.17c-.22.81-.52,1.35-.93,1.76-.56.55-1.27.84-2.26.84-1.04,0-2.08-.43-2.79-1.1M179.81,91.1c0-.94-.77-1.89-2.07-1.89-1.38,0-2.71,1.11-2.71,2.73,0,1.18.96,1.79,1.95,1.79,1.48,0,2.82-1.31,2.82-2.64"/><path class="cls-3" d="M187.4,88.81h.57s-1.59,5.9-1.59,5.9h-.57s1.59-5.9,1.59-5.9ZM187.96,86.5h.71s-.21.78-.21.78h-.71s.21-.78.21-.78Z"/><path class="cls-3" d="M192.51,93.82l.41-.4c.65.63,1.39.9,2.16.9.75,0,1.53-.46,1.53-1.17,0-.45-.25-.79-1.28-1.17-1.12-.42-1.65-.81-1.65-1.58,0-.94.86-1.71,2.19-1.71.83,0,1.63.37,2.13.79l-.37.43c-.45-.37-1.12-.69-1.82-.69-.99,0-1.53.54-1.53,1.1,0,.45.23.73,1.33,1.16,1.18.46,1.61.89,1.61,1.6,0,1.03-1.01,1.78-2.2,1.78-.91,0-1.83-.35-2.5-1.02"/><path class="cls-3" d="M203.24,93.65c0-.18.04-.42.07-.57l1.01-3.75h-.86s.14-.52.14-.52h.86s.51-1.88.51-1.88h.57s-.51,1.89-.51,1.89h2.04s-.14.52-.14.52h-2.04s-1.01,3.76-1.01,3.76c-.04.15-.06.36-.06.5,0,.49.37.71.96.71.25,0,.52-.06.86-.18l-.15.56c-.31.11-.53.15-.83.15-.79,0-1.41-.36-1.41-1.17"/><path class="cls-3" d="M212.96,88.81h.57s-1.59,5.9-1.59,5.9h-.57s1.59-5.9,1.59-5.9ZM213.52,86.5h.71s-.21.78-.21.78h-.71s.21-.78.21-.78Z"/><path class="cls-3" d="M218.64,92.31c0-1.93,1.61-3.63,3.47-3.63,1.2,0,1.95.68,2.31,1.42l-.47.27c-.36-.63-.89-1.16-1.87-1.16-1.5,0-2.82,1.45-2.82,3.06,0,1.33.96,2.05,1.99,2.05.76,0,1.36-.34,1.91-.84l.38.37c-.6.58-1.35,1.01-2.33,1.01-1.3,0-2.57-.93-2.57-2.54"/><path class="cls-3" d="M228.74,93.82l.41-.4c.65.63,1.39.9,2.16.9.75,0,1.53-.46,1.53-1.17,0-.45-.25-.79-1.28-1.17-1.12-.42-1.65-.81-1.65-1.58,0-.94.86-1.71,2.19-1.71.83,0,1.63.37,2.13.79l-.37.43c-.45-.37-1.12-.69-1.82-.69-.99,0-1.53.54-1.53,1.1,0,.45.23.73,1.33,1.16,1.18.46,1.61.89,1.61,1.6,0,1.03-1.01,1.78-2.2,1.78-.91,0-1.83-.35-2.5-1.02"/></svg>